<?xml version="1.0" encoding="utf-8"?>
<!-- Generator: Adobe Illustrator 23.0.4, SVG Export Plug-In . SVG Version: 6.00 Build 0)  -->
<svg version="1.1" id="Layer_1" xmlns="http://www.w3.org/2000/svg" xmlns:xlink="http://www.w3.org/1999/xlink" x="0px" y="0px"
	 viewBox="0 0 129.9 134.3" style="enable-background:new 0 0 129.9 134.3;" xml:space="preserve">
<style type="text/css">
	.st0{fill:#F8BF35;}
	.st1{fill:none;stroke:#F8BF35;stroke-width:5;stroke-linecap:round;stroke-linejoin:round;stroke-miterlimit:10;}
</style>
<g>
	<g>
		<g>
			<path class="st0" d="M44.2,5c2.1,0,4.2,0.8,5.8,2.5l46.4,49.1l-3.3-29.9c-0.6-4.2,2-8.8,6.5-9.7c0.6-0.1,1.3-0.2,1.9-0.2
				c3.7,0,7,2.2,7.9,6.7c0,0,14.1,54.3,14.1,54.7c3.4,13.9-0.5,29.2-11.7,39.8c-8,7.5-18.1,11.3-28.3,11.3
				c-10.9,0-21.7-4.3-29.8-12.7c0,0-46.7-49.4-46.7-49.4c-3-3.2-2.9-8.3,0.3-11.3c1.5-1.5,3.5-2.2,5.5-2.2c2.1,0,4.3,0.8,5.8,2.5
				l27.9,29.5c0.2-1.1,0.4-2.1,0.6-3.2L11.2,44.2c-3-3.2-2.9-8.3,0.3-11.3c1.5-1.5,3.5-2.2,5.5-2.2c2.1,0,4.2,0.8,5.8,2.5l31.8,33.7
				c0.5-0.7,1.1-1.4,1.7-2.1L20,26.2c-3-3.2-2.9-8.3,0.3-11.3c1.5-1.5,3.5-2.2,5.5-2.2c2.1,0,4.3,0.8,5.8,2.5L69.3,55
				c0.8-0.4,1.7-0.8,2.6-1.1L38.4,18.5c-3-3.2-2.9-8.3,0.3-11.3C40.3,5.7,42.3,5,44.2,5 M44.2,0l0,5L44.2,0c-3.3,0-6.5,1.3-8.9,3.6
				c-1.7,1.6-2.9,3.5-3.5,5.6c-1.8-1-3.9-1.5-6-1.5c-3.3,0-6.5,1.3-8.9,3.6c-2.5,2.4-4,5.6-4.1,9.1c-0.1,2,0.3,4,1.1,5.7
				c-2.2,0.5-4.1,1.6-5.8,3.2c-2.5,2.4-4,5.6-4.1,9.1c-0.1,3.5,1.2,6.8,3.6,9.3l1.5,1.6c-1.9,0.6-3.6,1.6-5,3
				c-5.2,4.9-5.4,13.2-0.5,18.4c42.6,45,46.4,49,46.7,49.4l0,0c8.8,9.2,20.7,14.3,33.4,14.3c11.8,0,23.1-4.5,31.7-12.6
				c12-11.4,17.1-28.5,13.1-44.6c-0.1-0.3-9.9-38.2-14.1-54.6c-1.3-6.4-6.3-10.6-12.8-10.6c-0.9,0-1.9,0.1-2.8,0.3
				c-6.8,1.3-11.5,8.1-10.5,15.2l1.6,15L53.7,4.1C51.2,1.5,47.8,0,44.2,0L44.2,0z"/>
		</g>
		<path class="st1" d="M85.4,93.1c-3.8-5.4-6.1-12-6.1-19.1c0-9.6,4.1-18.3,10.6-24.3"/>
	</g>
</g>
</svg>
