<?xml version="1.0" encoding="utf-8"?>
<!-- Generator: Adobe Illustrator 23.0.4, SVG Export Plug-In . SVG Version: 6.00 Build 0)  -->
<svg version="1.1" id="Layer_1" xmlns="http://www.w3.org/2000/svg" xmlns:xlink="http://www.w3.org/1999/xlink" x="0px" y="0px"
	 viewBox="0 0 190.5 234.3" style="enable-background:new 0 0 190.5 234.3;" xml:space="preserve">
<style type="text/css">
	.st0{fill:#d9e0ef;}
</style>
<g>
	<path class="st0" d="M190.5,149.3c0-27.3-22.2-49.6-49.6-49.6h-0.3c-1-0.2-2-0.4-3.1-0.4H13.1C5.9,99.3,0,105.2,0,112.5v54.2
		c0,37.4,30.3,67.6,67.6,67.6H83c25.7,0,48.1-14.4,59.5-35.5C169.1,198,190.5,176.1,190.5,149.3z M148,185.3
		c1.7-5.9,2.6-12.2,2.6-18.7v-52.8c15.6,4.3,27.1,18.5,27.1,35.4C177.7,167.1,164.9,182,148,185.3z"/>
	<path class="st0" d="M47.3,63.4c0,11.3,5.1,17.3,9.3,22.2c1.1,1.3,2.1,2.5,3,3.7c1.1,1.5,2.8,2.3,4.6,2.3c1.2,0,2.3-0.4,3.3-1.1
		c2.5-1.8,3.1-5.4,1.3-7.9c-1.2-1.6-2.4-3.1-3.6-4.5c-3.7-4.3-6.5-7.6-6.5-14.8c0-7.1,2.9-10.5,6.5-14.8c4.1-4.8,9.3-10.8,9.3-22.2
		c0-11.3-5.1-17.3-9.3-22.2c-0.6-0.7-1.3-1.5-1.9-2.3c-2-2.4-5.6-2.8-8-0.8c-2.4,2-2.8,5.6-0.8,8c0.7,0.9,1.4,1.7,2.1,2.5
		c3.7,4.3,6.5,7.6,6.5,14.8c0,7.1-2.9,10.5-6.5,14.8C52.5,46.1,47.3,52.1,47.3,63.4z"/>
	<path class="st0" d="M76.1,63.4c0,11.3,5.1,17.3,9.3,22.2c1.1,1.3,2.1,2.5,3,3.7c1.1,1.5,2.8,2.3,4.6,2.3c1.2,0,2.3-0.4,3.3-1.1
		c2.5-1.8,3.1-5.4,1.3-7.9c-1.2-1.6-2.4-3.1-3.6-4.5c-3.7-4.3-6.5-7.6-6.5-14.8c0-7.1,2.9-10.5,6.5-14.8c4.1-4.8,9.3-10.8,9.3-22.2
		c0-11.3-5.1-17.3-9.3-22.2c-0.6-0.7-1.3-1.5-1.9-2.3c-2-2.4-5.6-2.8-8-0.8c-2.4,2-2.8,5.6-0.8,8c0.7,0.9,1.4,1.7,2.1,2.5
		c3.7,4.3,6.5,7.6,6.5,14.8c0,7.1-2.9,10.5-6.5,14.8C81.2,46.1,76.1,52.1,76.1,63.4z"/>
</g>
</svg>
