<?xml version="1.0" encoding="UTF-8"?>
<svg width="512px" height="384px" viewBox="0 0 512 384" version="1.1" xmlns="http://www.w3.org/2000/svg" xmlns:xlink="http://www.w3.org/1999/xlink">
    <!-- Generator: Sketch 56.2 (81672) - https://sketch.com -->
    <title>Shape</title>
    <desc>Created with Sketch.</desc>
    <g id="Page-1" stroke="none" stroke-width="1" fill="none" fill-rule="evenodd">
        <g id="mail" fill="#ABB2BF" fill-rule="nonzero">
            <path d="M502.3,164.095291 C506.2,161.444807 512,163.924292 512,168.113768 L512,342.960241 C512,365.617608 490.5,384 464,384 L48,384 C21.5,384 0,365.617608 0,342.960241 L0,168.199267 C0,163.924292 5.7,161.530307 9.7,164.180791 C32.1,179.057704 61.8,197.953093 163.8,261.308221 C184.9,274.475143 220.5,302.176981 256,302.005982 C291.7,302.26248 328,273.962146 348.3,261.308221 C450.3,197.953093 479.9,178.972204 502.3,164.095291 Z M256,220.996535 C279.2,221.341842 312.6,195.789117 329.4,185.257251 C462.1,102.124571 472.2,94.8731217 502.8,74.1546966 C508.6,70.2699919 512,64.2271179 512,57.8389368 L512,41.4368503 C512,18.5602558 490.5,2.84217094e-14 464,2.84217094e-14 L48,2.84217094e-14 C21.5,2.84217094e-14 0,18.5602558 0,41.4368503 L0,57.8389368 C0,64.2271179 3.4,70.1836651 9.2,74.1546966 C39.8,94.786795 49.9,102.124571 182.6,185.257251 C199.4,195.789117 232.8,221.341842 256,220.996535 Z" id="Shape"></path>
        </g>
    </g>
</svg>