<?xml version="1.0" encoding="utf-8"?>
<!-- Generator: Adobe Illustrator 23.0.4, SVG Export Plug-In . SVG Version: 6.00 Build 0)  -->
<svg version="1.1" id="Layer_2" xmlns="http://www.w3.org/2000/svg" xmlns:xlink="http://www.w3.org/1999/xlink" x="0px" y="0px"
	 viewBox="0 0 1640 1278" style="enable-background:new 0 0 1640 1278;" xml:space="preserve">
<style type="text/css">
	.st0{fill:#ACB3C0;}
</style>
<g>
	<path class="st0" d="M208.7,1139.9c0.8,0.4,1.2,0.8,1.4,1.3c0.2,0.5,0,1.2-0.4,2c-0.4,0.8-0.9,1.2-1.4,1.4
		c-0.5,0.2-1.1,0.1-1.9-0.3l-27.3-13.4c-0.6-0.3-1-0.6-1.2-1c-0.3-0.4-0.4-0.8-0.4-1.5c0-0.6,0.1-1.1,0.4-1.5c0.3-0.4,0.7-0.7,1.2-1
		l27.3-13.4c0.7-0.4,1.3-0.4,1.9-0.3c0.5,0.2,1,0.7,1.4,1.4c0.4,0.8,0.5,1.5,0.4,2c-0.2,0.5-0.6,1-1.4,1.3l-23.6,11.3L208.7,1139.9z
		"/>
</g>
<g>
	<path class="st0" d="M628.7,342.3c0-0.8,0.2-1.6,0.5-2.3s0.7-1.3,1.3-1.9c0.5-0.5,1.2-1,1.9-1.3c0.7-0.3,1.5-0.5,2.3-0.5
		c0.8,0,1.6,0.2,2.3,0.5c0.7,0.3,1.3,0.7,1.9,1.3c0.5,0.5,1,1.2,1.3,1.9s0.5,1.5,0.5,2.3s-0.2,1.6-0.5,2.3s-0.7,1.3-1.3,1.9
		c-0.5,0.5-1.2,1-1.9,1.3c-0.7,0.3-1.5,0.5-2.3,0.5c-0.8,0-1.6-0.2-2.3-0.5c-0.7-0.3-1.3-0.7-1.9-1.3c-0.5-0.5-1-1.2-1.3-1.9
		S628.7,343.1,628.7,342.3z M628.7,364.5c0-0.8,0.2-1.6,0.5-2.3s0.7-1.3,1.3-1.9c0.5-0.5,1.2-1,1.9-1.3c0.7-0.3,1.5-0.5,2.3-0.5
		c0.8,0,1.6,0.2,2.3,0.5c0.7,0.3,1.3,0.7,1.9,1.3c0.5,0.5,1,1.2,1.3,1.9s0.5,1.5,0.5,2.3s-0.2,1.6-0.5,2.3s-0.7,1.3-1.3,1.9
		c-0.5,0.5-1.2,1-1.9,1.3c-0.7,0.3-1.5,0.5-2.3,0.5c-0.8,0-1.6-0.2-2.3-0.5c-0.7-0.3-1.3-0.7-1.9-1.3c-0.5-0.5-1-1.2-1.3-1.9
		S628.7,365.3,628.7,364.5z"/>
</g>
<g>
	<path class="st0" d="M892.5,1076.2c0.8,0,1.4,0.2,1.7,0.5s0.5,1,0.5,1.9s-0.2,1.5-0.5,1.9s-0.9,0.5-1.7,0.5h-14.6
		c-0.8,0-1.4-0.2-1.7-0.5s-0.5-1-0.5-1.9v-55.2c0-0.9,0.2-1.5,0.5-1.9s0.9-0.5,1.7-0.5h14.6c0.8,0,1.4,0.2,1.7,0.5s0.5,1,0.5,1.9
		s-0.2,1.5-0.5,1.9s-0.9,0.5-1.7,0.5H881v50.4H892.5z"/>
</g>
<g>
	<path class="st0" d="M1098.1,737.6c-0.5,0.3-1,0.3-1.5,0c-0.5-0.3-0.9-0.7-1.2-1.2c-0.3-0.5-0.5-1.1-0.6-1.7s0.1-1,0.5-1.2
		c1.7-1.1,3.5-2.5,5.2-4.1c1.7-1.6,3.2-3.5,4.6-5.6c1.3-2.1,2.4-4.5,3.3-7.2c0.8-2.7,1.3-5.7,1.3-8.9c0-3.3-0.4-6.2-1.3-8.9
		c-0.8-2.7-1.9-5.1-3.3-7.3c-1.3-2.2-2.9-4-4.6-5.7c-1.7-1.6-3.4-3-5.2-4.2c-0.4-0.3-0.5-0.7-0.5-1.2c0.1-0.6,0.3-1.1,0.6-1.7
		c0.3-0.5,0.7-0.9,1.2-1.2c0.5-0.3,1-0.3,1.5,0c2,1.2,3.9,2.7,5.9,4.6c2,1.9,3.8,4.1,5.4,6.7c1.6,2.5,2.9,5.4,3.9,8.6
		c1,3.2,1.5,6.6,1.5,10.3s-0.5,7.2-1.5,10.3c-1,3.1-2.3,6-3.9,8.5c-1.6,2.5-3.4,4.7-5.4,6.6C1102.1,734.9,1100.1,736.5,1098.1,737.6
		z"/>
</g>
<g>
	<path class="st0" d="M1263.9,246.1l-23.6-11.3c-0.8-0.4-1.2-0.8-1.4-1.3c-0.2-0.5,0-1.2,0.4-2c0.4-0.8,0.9-1.2,1.4-1.4
		c0.5-0.2,1.1-0.1,1.9,0.3l27.3,13.4c0.6,0.3,1,0.6,1.2,1c0.3,0.4,0.4,0.8,0.4,1.5c0,0.6-0.1,1.1-0.4,1.5c-0.3,0.4-0.7,0.7-1.2,1
		l-27.3,13.4c-0.7,0.4-1.3,0.4-1.9,0.3c-0.5-0.2-1-0.7-1.4-1.4c-0.4-0.8-0.5-1.5-0.4-2c0.2-0.5,0.6-1,1.4-1.3L1263.9,246.1z"/>
</g>
<g>
	<path class="st0" d="M370.4,602.5c0-0.8,0.2-1.4,0.6-1.8s1.1-0.5,2.1-0.5s1.7,0.2,2.1,0.5s0.6,0.9,0.6,1.8v56.9
		c0,0.8-0.2,1.4-0.6,1.8s-1.1,0.5-2.1,0.5s-1.7-0.2-2.1-0.5s-0.6-0.9-0.6-1.8V602.5z"/>
</g>
<g>
	<path class="st0" d="M1400.2,527c0-0.8,0.2-1.6,0.5-2.3c0.3-0.7,0.7-1.3,1.3-1.9c0.5-0.5,1.2-1,1.9-1.3s1.5-0.5,2.3-0.5
		s1.6,0.2,2.3,0.5s1.3,0.7,1.9,1.3c0.5,0.5,1,1.2,1.3,1.9c0.3,0.7,0.5,1.5,0.5,2.3c0,0.8-0.2,1.6-0.5,2.3c-0.3,0.7-0.7,1.3-1.3,1.9
		s-1.2,1-1.9,1.3s-1.5,0.5-2.3,0.5s-1.6-0.2-2.3-0.5s-1.3-0.7-1.9-1.3s-1-1.2-1.3-1.9C1400.4,528.5,1400.2,527.8,1400.2,527z"/>
</g>
<g>
	<path class="st0" d="M33.1,140c1.7,1,3,2.4,3.9,4.1c0.9,1.7,1.3,3.6,1.3,5.7v7.4c0,1.6,0.1,2.9,0.4,4s0.7,2,1.3,2.7
		s1.4,1.2,2.3,1.5s2.1,0.5,3.4,0.5c0.8,0,1.4,0.2,1.7,0.5c0.3,0.4,0.5,1,0.5,1.9s-0.2,1.5-0.5,1.9c-0.3,0.4-0.9,0.5-1.7,0.5
		c-4.1,0-7.2-1.1-9.4-3.2c-2.2-2.1-3.3-5.4-3.3-9.9v-7.5c0-2.6-0.6-4.5-1.8-5.8c-1.2-1.3-3.1-2-5.7-2c-0.8,0-1.4-0.2-1.7-0.5
		c-0.3-0.4-0.5-1-0.5-1.9c0-0.9,0.2-1.5,0.5-1.9c0.3-0.4,0.9-0.5,1.7-0.5c2.6,0,4.5-0.7,5.7-2c1.2-1.3,1.8-3.2,1.8-5.8v-5.9
		c0-4.5,1.1-7.8,3.3-9.9c2.2-2.1,5.3-3.2,9.4-3.2c0.8,0,1.4,0.2,1.7,0.5c0.3,0.4,0.5,1,0.5,1.9c0,0.9-0.2,1.5-0.5,1.9
		c-0.3,0.4-0.9,0.5-1.7,0.5c-1.3,0-2.4,0.2-3.4,0.5s-1.7,0.8-2.3,1.5s-1,1.6-1.3,2.7c-0.3,1.1-0.4,2.5-0.4,4v5.9
		c0,2.2-0.4,4.1-1.3,5.7C36.1,137.6,34.8,139,33.1,140z"/>
</g>
<g>
	<path class="st0" d="M702.7,46.1c0-0.8,0.2-1.6,0.5-2.3c0.3-0.7,0.7-1.3,1.3-1.9c0.5-0.5,1.2-1,1.9-1.3c0.7-0.3,1.5-0.5,2.3-0.5
		c0.8,0,1.6,0.2,2.3,0.5c0.7,0.3,1.3,0.7,1.9,1.3c0.5,0.5,1,1.2,1.3,1.9c0.3,0.7,0.5,1.5,0.5,2.3c0,0.8-0.2,1.6-0.5,2.3
		c-0.3,0.7-0.7,1.3-1.3,1.9c-0.5,0.5-1.2,1-1.9,1.3c-0.7,0.3-1.5,0.5-2.3,0.5c-0.8,0-1.6-0.2-2.3-0.5c-0.7-0.3-1.3-0.7-1.9-1.3
		c-0.5-0.5-1-1.2-1.3-1.9C702.9,47.7,702.7,46.9,702.7,46.1z"/>
</g>
<g>
	<path class="st0" d="M1505.2,990.2c-0.3,0.5-0.6,0.9-1,1.1c-0.4,0.2-0.8,0.4-1.3,0.4c-0.3,0-0.6-0.1-0.9-0.2s-0.5-0.3-0.7-0.5
		s-0.4-0.4-0.4-0.7c-0.1-0.3-0.1-0.6,0-1l3.7-16.9c0.2-0.9,0.8-1.4,1.8-1.4h6.8c0.6,0,1,0.2,1.2,0.7c0.2,0.4,0.1,1-0.2,1.6
		L1505.2,990.2z M1503.3,954c0-0.8,0.2-1.6,0.5-2.3c0.3-0.7,0.7-1.3,1.3-1.9c0.5-0.5,1.2-1,1.9-1.3c0.7-0.3,1.5-0.5,2.3-0.5
		c0.8,0,1.6,0.2,2.3,0.5c0.7,0.3,1.3,0.7,1.9,1.3c0.5,0.5,1,1.2,1.3,1.9c0.3,0.7,0.5,1.5,0.5,2.3c0,0.8-0.2,1.6-0.5,2.3
		c-0.3,0.7-0.7,1.3-1.3,1.9c-0.5,0.5-1.2,1-1.9,1.3c-0.7,0.3-1.5,0.5-2.3,0.5c-0.8,0-1.6-0.2-2.3-0.5c-0.7-0.3-1.3-0.7-1.9-1.3
		c-0.5-0.5-1-1.2-1.3-1.9C1503.4,955.6,1503.3,954.8,1503.3,954z"/>
</g>
</svg>
